<?xml version="1.0" encoding="UTF-8"?>
<!DOCTYPE svg PUBLIC "-//W3C//DTD SVG 1.1//EN" "http://www.w3.org/Graphics/SVG/1.1/DTD/svg11.dtd">
<svg width="112px" height="42px" viewBox="0 0 575 218" version="1.1" xmlns="http://www.w3.org/2000/svg" xmlns:xlink="http://www.w3.org/1999/xlink" xml:space="preserve" xmlns:serif="http://www.serif.com/" style="fill-rule:evenodd;clip-rule:evenodd;stroke-linejoin:round;stroke-miterlimit:1.41421;">
    <g>
        <path d="M136.714,101.465c-14.016,0 -23.43,-11.498 -23.43,-28.621c0,-17.121 9.414,-28.624 23.43,-28.624c14.014,0 23.432,11.503 23.432,28.624c0,17.123 -9.418,28.621 -23.432,28.621Zm0,-63.956c-23.934,0 -32.424,19.031 -32.424,35.335c0,16.302 8.49,35.335 32.424,35.335c23.937,0 32.427,-19.033 32.427,-35.335c0,-16.304 -8.49,-35.335 -32.427,-35.335Z" style="fill:#fff;fill-rule:nonzero;"/>
        <path d="M184.701,49.916l0,-11.069l-7.627,0l0.008,67.474l8.166,0l0,-33.334l-0.014,-0.432c0.014,-12.431 3.537,-27.29 20.312,-27.29l2.55,0.12l0.032,-0.263l0.408,-7.87l-0.949,-0.005c-11.333,0 -19.013,4.278 -22.886,12.669Z" style="fill:#fff;fill-rule:nonzero;"/>
        <path d="M350.632,52c-5.628,-1.858 -9.745,-2.932 -16.469,-2.932c-4.944,0 -10.842,1.736 -10.842,7.601c0,10.929 31.975,3.999 31.975,28.772c0,15.997 -14.684,22.396 -29.642,22.396c-7.009,0 -14.141,-1.195 -20.863,-2.929l1.096,-14.664c5.762,2.796 11.801,4.532 18.109,4.532c4.677,0 12.087,-1.736 12.087,-8.393c0,-13.459 -31.98,-4.266 -31.98,-29.05c0,-14.785 13.313,-21.325 27.721,-21.325c8.65,0 14.281,1.339 20.04,2.538l-1.232,13.454Z" style="fill:#fff;fill-rule:nonzero;"/>
        <rect x="436.272" y="37.694" width="18.398" height="68.627" style="fill:#fff;fill-rule:nonzero;"/>
        <path d="M569.698,52c-5.626,-1.858 -9.742,-2.932 -16.466,-2.932c-4.95,0 -10.844,1.736 -10.844,7.601c0,10.929 31.973,3.999 31.973,28.772c0,15.997 -14.68,22.396 -29.64,22.396c-7.005,0 -14.137,-1.195 -20.864,-2.929l1.098,-14.664c5.762,2.796 11.804,4.532 18.115,4.532c4.668,0 12.081,-1.736 12.081,-8.393c0,-13.459 -31.98,-4.266 -31.98,-29.05c0,-14.785 13.313,-21.325 27.729,-21.325c8.645,0 14.266,1.339 20.033,2.538l-1.235,13.454Z" style="fill:#fff;fill-rule:nonzero;"/>
        <path d="M400.347,68.456l26.056,-30.761l-21.688,0l-21.957,27.454l-0.275,0l0,-64.38l-18.395,5.618l0,99.935l18.395,0l0,-33.313l0.275,0l23.61,33.313l23.327,0l-29.348,-37.866Z" style="fill:#fff;fill-rule:nonzero;"/>
        <path d="M264.271,101.206c-18.918,0 -20.966,-20.014 -20.966,-28.618c0,-8.611 2.048,-28.624 20.966,-28.624c14.482,0 20.968,14.372 20.968,28.624c0,14.246 -6.486,28.618 -20.968,28.618Zm28.804,-96.671l-7.836,2.398l0,41.718c-1.703,-2.853 -8.074,-11.582 -22.344,-11.406c-23.618,0.301 -28.577,19.378 -28.577,35.343c0,21.792 10.951,35.337 28.582,35.337c10.501,0 17.602,-3.868 22.339,-12.067l0,10.463l8.165,0l0,-101.888l-0.329,0.102Z" style="fill:#fff;fill-rule:nonzero;"/>
        <path d="M224.89,4.542l-7.836,2.387l0,99.394l8.168,0l0,-101.889l-0.332,0.108Z" style="fill:#fff;fill-rule:nonzero;"/>
        <path d="M466.534,6.387l0,99.934l18.389,0l0,-105.555l-18.389,5.621Z" style="fill:#fff;fill-rule:nonzero;"/>
        <path d="M495.519,6.387l-0.011,0l0,99.934l18.398,0l0,-105.555l-18.387,5.621Z" style="fill:#fff;fill-rule:nonzero;"/>
        <path d="M456.1,12.077c0,-5.663 -4.593,-10.245 -10.245,-10.245c-5.652,0 -10.239,4.582 -10.239,10.245c0,5.657 4.587,10.245 10.239,10.245c5.652,0 10.245,-4.588 10.245,-10.245Z" style="fill:#fff;fill-rule:nonzero;"/>
        <path d="M8.767,38.846l-8.767,0l0.109,0.337c0.419,1.272 21.979,66.368 22.18,66.962l0.057,0.177l10.086,0c0,0 18.959,-58.411 19.074,-58.767l0.623,0c0.118,0.356 19.077,58.767 19.077,58.767l10.091,0l22.894,-67.476l-8.143,0c0,0 -19.234,58.414 -19.352,58.762l-0.625,0c-0.11,-0.351 -18.523,-58.762 -18.523,-58.762l-10.088,0c0,0 -19.37,58.414 -19.491,58.762l-0.622,0c-0.11,-0.358 -18.389,-58.762 -18.389,-58.762l-0.191,0Z" style="fill:#fff;fill-rule:nonzero;"/>
        <path d="M9.609,122.154l14.444,0l34.423,82.885l34.557,-82.885l13.365,0l0,94.224l-9.315,0l0,-84.909l-0.27,0l-34.287,84.909l-7.965,0l-35.368,-84.909l-0.27,0l0,84.909l-9.314,0l0,-94.224Z" style="fill:#fff;fill-rule:nonzero;"/>
        <path d="M164.902,177.096c0,-6.299 -1.306,-11.789 -3.915,-16.469c-2.79,-4.769 -7.336,-7.243 -13.634,-7.425c-6.209,0.182 -11.116,2.701 -14.714,7.56c-3.691,4.859 -5.534,10.306 -5.534,16.334l37.797,0Zm4.185,37.122c-6.48,2.43 -13.141,3.689 -19.979,3.78c-11.25,-0.181 -19.304,-3.644 -24.164,-10.394c-4.859,-6.569 -7.245,-15.119 -7.154,-25.649c0.089,-10.708 2.789,-19.392 8.1,-26.052c5.129,-6.569 12.102,-9.9 20.923,-9.991c9.629,0.182 16.649,3.557 21.059,10.125c4.229,6.48 6.344,14.491 6.344,24.029l0,4.319l-47.111,0c0,7.471 1.934,13.635 5.804,18.494c3.78,5.13 9.403,7.741 16.874,7.829c3.328,0 6.838,-0.584 10.529,-1.755c3.69,-0.989 6.615,-2.113 8.775,-3.374l0,8.639Z" style="fill:#fff;fill-rule:nonzero;"/>
        <path d="M266.321,216.378l0,-45.762c0,-2.518 -0.181,-4.86 -0.54,-7.019c-0.54,-2.069 -1.396,-3.868 -2.565,-5.401c-1.081,-1.619 -2.565,-2.878 -4.456,-3.779c-1.888,-0.809 -4.23,-1.215 -7.018,-1.215c-4.771,0 -9,1.981 -12.689,5.94c-3.78,4.14 -5.716,10.529 -5.805,19.169l0,38.067l-8.504,0l0,-45.762c0,-2.518 -0.182,-4.86 -0.54,-7.019c-0.54,-2.069 -1.397,-3.868 -2.565,-5.401c-1.08,-1.619 -2.565,-2.878 -4.455,-3.779c-1.89,-0.809 -4.231,-1.215 -7.019,-1.215c-4.771,0 -9,1.981 -12.69,5.94c-3.779,4.14 -5.716,10.529 -5.804,19.169l0,38.067l-8.505,0l0,-52.646c0,-5.309 -0.181,-10.709 -0.539,-16.2l8.234,0l0,11.61l0.27,0.135c0.628,-1.259 1.485,-2.654 2.565,-4.185c0.898,-1.529 2.16,-2.97 3.779,-4.319c1.62,-1.351 3.645,-2.519 6.075,-3.51c2.43,-0.899 5.444,-1.351 9.044,-1.351c1.62,0 3.375,0.182 5.265,0.54c1.799,0.362 3.599,1.08 5.4,2.161c1.799,0.991 3.374,2.429 4.724,4.319c1.35,1.981 2.295,4.502 2.835,7.559l0.27,0c1.708,-4.137 4.455,-7.603 8.235,-10.393c3.689,-2.7 8.279,-4.095 13.769,-4.186c7.019,0.091 12.419,2.251 16.199,6.481c3.689,4.139 5.534,9.675 5.534,16.603l0,47.382l-8.504,0Z" style="fill:#fff;fill-rule:nonzero;"/>
        <path d="M336.718,181.955c0,-3.419 -0.226,-6.838 -0.675,-10.259c-0.631,-3.419 -1.755,-6.48 -3.375,-9.179c-1.44,-2.879 -3.51,-5.13 -6.209,-6.75c-2.7,-1.708 -6.075,-2.565 -10.124,-2.565c-3.78,0 -6.976,0.857 -9.585,2.565c-2.611,1.802 -4.725,4.14 -6.345,7.019c-3.06,6.031 -4.545,12.42 -4.454,19.169c-0.091,6.571 1.438,12.915 4.59,19.034c1.619,2.881 3.733,5.176 6.344,6.884c2.518,1.891 5.67,2.835 9.45,2.835c4.049,0 7.424,-0.944 10.124,-2.835c2.699,-1.708 4.769,-3.914 6.209,-6.614c1.62,-2.879 2.744,-6.028 3.375,-9.449c0.449,-3.328 0.675,-6.614 0.675,-9.855Zm-49.272,-66.82l8.505,0l0,44.007l0.27,0c0.358,-0.989 1.079,-2.248 2.159,-3.779c0.99,-1.439 2.34,-2.835 4.05,-4.186c1.8,-1.528 3.959,-2.788 6.48,-3.779c2.518,-0.99 5.444,-1.486 8.774,-1.486c10.078,0.091 17.368,3.466 21.869,10.125c4.32,6.571 6.479,15.21 6.479,25.918c0,10.351 -2.341,18.899 -7.019,25.649c-4.771,6.75 -11.879,10.213 -21.329,10.394c-9.81,0.088 -16.964,-4.094 -21.463,-12.554l-0.27,0l0,10.934l-8.505,0l0,-101.243Z" style="fill:#fff;fill-rule:nonzero;"/>
        <path d="M399.191,177.096c0,-6.299 -1.305,-11.789 -3.914,-16.469c-2.791,-4.769 -7.336,-7.243 -13.634,-7.425c-6.21,0.182 -11.116,2.701 -14.714,7.56c-3.692,4.859 -5.535,10.306 -5.535,16.334l37.797,0Zm4.185,37.122c-6.479,2.43 -13.14,3.689 -19.978,3.78c-11.251,-0.181 -19.304,-3.644 -24.164,-10.394c-4.859,-6.569 -7.245,-15.119 -7.154,-25.649c0.088,-10.708 2.788,-19.392 8.099,-26.052c5.13,-6.569 12.103,-9.9 20.924,-9.991c9.629,0.182 16.648,3.557 21.058,10.125c4.229,6.48 6.345,14.491 6.345,24.029l0,4.319l-47.112,0c0,7.471 1.934,13.635 5.805,18.494c3.78,5.13 9.403,7.741 16.873,7.829c3.329,0 6.839,-0.584 10.53,-1.755c3.689,-0.989 6.614,-2.113 8.774,-3.374l0,8.639Z" style="fill:#fff;fill-rule:nonzero;"/>
        <path d="M417.456,162.922c0,-6.39 -0.181,-11.518 -0.54,-15.39l8.505,0l0,13.23l0.27,0c1.619,-4.05 3.914,-7.514 6.884,-10.395c2.879,-2.879 6.479,-4.364 10.799,-4.455c2.249,0.091 4.229,0.362 5.94,0.811l0,8.909c-1.89,-0.54 -3.961,-0.81 -6.21,-0.81c-3.33,0.091 -6.075,0.901 -8.234,2.43c-2.16,1.62 -3.915,3.826 -5.265,6.614c-1.261,2.701 -2.16,5.625 -2.7,8.775c-0.63,3.331 -0.944,6.57 -0.944,9.72l0,34.017l-8.505,0l0,-53.456Z" style="fill:#fff;fill-rule:nonzero;"/>
    </g>
</svg>
